<?xml version="1.0" encoding="UTF-8"?>
<svg width="27px" height="65px" viewBox="0 0 27 65" version="1.1" xmlns="http://www.w3.org/2000/svg" xmlns:xlink="http://www.w3.org/1999/xlink">
    <!-- Generator: Sketch 46.2 (44496) - http://www.bohemiancoding.com/sketch -->
    <title>abdo</title>
    <desc>Created with Sketch.</desc>
    <defs>
        <polygon id="path-1" points="0 38.1766322 0 0.21125 26.9347748 0.21125 26.9347748 38.1766322"></polygon>
    </defs>
    <g id="Symbols" stroke="none" stroke-width="1" fill="none" fill-rule="evenodd">
        <g id="entrainement" transform="translate(-46.000000, -277.000000)">
            <g id="Group-3" transform="translate(46.000000, 277.000000)">
                <g id="abdo">
                    <g id="Page-1">
                        <g id="Group-3" transform="translate(6.517241, 28.226250)" fill="#1A1A1A">
                            <path d="M0.28412069,7.0373125 C0.552258621,9.2545 1.0692931,13.986375 1.59563793,15.855125 C1.87060345,16.8223125 1.70798276,19.2610625 1.92832759,19.870125 C2.02763793,20.1348125 1.9755,20.3785625 1.76198276,20.9779375 C1.02118966,23.0748125 1.11553448,24.5516875 2.97884483,30.11575 C2.97884483,30.11575 3.55236207,31.34825 3.2625,33.56325 C3.2625,33.56325 2.07201724,36.0295 2.83453448,36.0791875 C2.83453448,36.0791875 2.89412069,36.2423125 3.15201724,36.1129375 C3.15201724,36.1129375 3.56384483,36.5410625 4.00887931,36.308875 C4.00887931,36.308875 4.42101724,36.640125 4.77325862,36.345125 C4.77325862,36.345125 5.05567241,36.6723125 5.4675,36.4079375 C5.4675,36.4079375 6.00812069,36.775125 6.32932759,36.377625 C6.32932759,36.377625 6.90005172,36.5048125 5.88398276,33.9129375 C5.88398276,33.9129375 5.49481034,31.165125 5.28036207,30.6248125 C4.87132759,29.601375 5.16025862,26.796375 5.24746552,26.1954375 C5.38805172,25.190125 5.31263793,23.4779375 5.05567241,22.15325 C4.86760345,21.203875 5.37687931,19.4116875 5.56494828,18.3095 C5.95132759,15.9898125 6.70856897,10.0679375 6.61391379,8.9473125 L6.92674138,9.0579375 C7.15081034,9.0585625 7.29232759,8.94825 7.29232759,8.94825 C7.19798276,10.067 7.95212069,15.988875 8.34098276,18.3104375 C8.52656897,19.41075 9.03460345,21.202625 8.85181034,22.1541875 C8.59081034,23.4804375 8.51539655,25.1966875 8.65908621,26.196375 C8.7497069,26.8029375 9.03491379,29.602 8.62681034,30.62575 C8.4132931,31.162625 8.02194828,33.913875 8.02194828,33.913875 C7.00246552,36.50575 7.57753448,36.3785625 7.57753448,36.3785625 C7.89346552,36.7685625 8.43408621,36.408875 8.43408621,36.408875 C8.84591379,36.67325 9.13112069,36.3460625 9.13112069,36.3460625 C9.48460345,36.64075 9.89674138,36.3098125 9.89674138,36.3098125 C10.3408448,36.542 10.7526724,36.113875 10.7526724,36.113875 C11.0077759,36.24325 11.0698448,36.080125 11.0698448,36.080125 C11.8354655,36.0304375 10.6431207,33.5645 10.6431207,33.5645 C10.3572931,31.3491875 10.9264655,30.1166875 10.9264655,30.1166875 C12.7894655,24.5523125 12.884431,23.07575 12.1396034,20.978875 C11.9298103,20.373875 11.8767414,20.133875 11.9732586,19.8710625 C12.1963966,19.2645 12.0337759,16.8248125 12.3059483,15.856375 C12.8310517,13.987625 13.3490172,9.2491875 13.6190172,7.03825 C13.9346379,4.44825 12.729569,1.092 12.4102241,0.26075 L1.49384483,0.26075 C1.17325862,1.0935625 -0.0324310345,4.44825 0.28412069,7.0373125" id="Fill-1"></path>
                        </g>
                        <g id="Group-6" transform="translate(0.000000, 0.101250)">
                            <mask id="mask-2" fill="white">
                                <use xlink:href="#path-1"></use>
                            </mask>
                            <g id="Clip-5"></g>
                            <path d="M25.4124931,32.158 C25.0341828,31.6805 24.5469414,31.041125 24.4054241,30.6614375 C24.1748379,30.0183125 24.0007345,27.9508125 24.0007345,27.9508125 C23.9309069,25.511125 23.3319414,24.4514375 23.3319414,24.4514375 C22.3078034,22.8008125 22.1150793,19.72175 22.1150793,19.72175 L22.069769,14.5233125 C21.7103897,10.977375 19.1159069,10.95175 19.1159069,10.95175 C16.4931828,10.558625 16.1282172,9.7055 16.1282172,9.7055 C15.5727,8.9005 15.8898724,7.357375 15.8898724,7.357375 C16.3510448,6.979875 16.5288724,5.9776875 16.5288724,5.9776875 C17.2941828,5.38675 17.256631,4.5220625 16.9031483,4.5314375 C16.6194931,4.5389375 16.6837345,4.302375 16.6837345,4.302375 C17.1622862,0.409875 13.7301828,0.211125 13.7301828,0.211125 L13.206631,0.211125 C13.206631,0.211125 9.77297586,0.409875 10.2509069,4.3014375 C10.2509069,4.3014375 10.3154586,4.5383125 10.0293207,4.5305 C9.67676897,4.521125 9.64356207,5.3858125 10.4060793,5.97675 C10.4060793,5.97675 10.5839069,6.978625 11.0450793,7.3564375 C11.0450793,7.3564375 11.3625621,8.8995625 10.8067345,9.7045625 C10.8067345,9.7045625 10.4433207,10.5576875 7.81935517,10.9508125 C7.81935517,10.9508125 5.22021724,10.9764375 4.86673448,14.522375 L4.8177,19.7208125 C4.8177,19.7208125 4.6287,22.799875 3.60052759,24.4505 C3.60052759,24.4505 3.00435517,25.5105 2.93545862,27.949875 C2.93545862,27.949875 2.76073448,30.017375 2.53107931,30.6605 C2.39111379,31.0383125 1.90387241,31.6776875 1.52245862,32.1570625 C0.775458621,33.092375 -0.480817241,35.0445625 0.19107931,35.267375 C0.19107931,35.267375 0.715562069,35.318625 1.40452759,33.9370625 C1.40452759,33.9370625 1.39025172,34.466125 0.837217241,36.007375 C0.728906897,36.293 0.266803448,37.75425 1.01535517,37.2289375 C1.01535517,37.2289375 1.36201034,36.98925 1.81263103,35.486125 C1.81263103,35.486125 1.57087241,38.017375 1.83963103,38.14425 C2.19156207,38.3176875 2.38335517,37.8170625 2.54194138,35.6020625 C2.54194138,35.6020625 2.70456207,34.88675 2.77997586,37.6170625 C2.78338966,37.758 2.98883793,38.4601875 3.27497586,37.8608125 C3.51704483,37.3583125 3.40842414,36.0283125 3.40842414,35.581125 C3.40842414,35.581125 3.71845862,37.30675 4.00832069,37.30675 C4.00832069,37.30675 4.34938966,37.7101875 4.20942414,35.5658125 C4.18645862,35.2155 4.30873448,34.4964375 4.32394138,34.2870625 L4.35683793,33.464875 C4.35683793,33.464875 4.27180345,32.523 4.27180345,32.1308125 C4.27180345,32.033625 4.60635517,30.751125 5.48866552,29.397375 C5.48866552,29.397375 7.32373448,26.119875 7.2054931,23.978 C7.2054931,23.978 7.17973448,21.93425 7.91897586,20.7764375 L19.0190793,20.777375 C19.7580103,21.9351875 19.729769,23.9789375 19.729769,23.9789375 C19.612769,26.122375 21.4493897,29.3983125 21.4493897,29.3983125 C22.3320103,30.7520625 22.6662517,32.0364375 22.6662517,32.13175 C22.6662517,32.52175 22.5818379,33.4658125 22.5818379,33.4658125 L22.6153552,34.288 C22.6308724,34.497375 22.7478724,35.2183125 22.7289414,35.56675 C22.5908379,37.711125 22.9294241,37.3076875 22.9294241,37.3076875 C23.2149414,37.3076875 23.5287,35.582375 23.5287,35.582375 C23.5287,36.0270625 23.4207,37.35925 23.6590448,37.86175 C23.9442517,38.461125 24.1537345,37.7589375 24.157769,37.618 C24.2328724,34.8876875 24.3961138,35.603 24.3961138,35.603 C24.5543897,37.818 24.7492862,38.3183125 25.0987345,38.1451875 C25.363769,38.018 25.1217,35.4870625 25.1217,35.4870625 C25.5748034,36.9905 25.9189759,37.229875 25.9189759,37.229875 C26.6672172,37.7589375 26.2044931,36.2976875 26.1005276,36.0083125 C25.5468724,34.4708125 25.5298034,33.938 25.5298034,33.938 C26.2212517,35.3195625 26.7429414,35.2683125 26.7429414,35.2683125 C27.417631,35.0514375 26.1532862,33.0955 25.4124931,32.158" id="Fill-4" fill="#1A1A1A" mask="url(#mask-2)"></path>
                        </g>
                        <path d="M8.08805172,28.2924375 C8.08805172,28.2924375 8.0595,28.362125 8.01108621,28.487125 L18.9274655,28.487125 C18.8793621,28.3624375 18.8511207,28.293375 18.8511207,28.293375 C18.4901897,26.668375 19.0193276,20.8786875 19.0193276,20.8786875 L7.91891379,20.87775 C7.91891379,20.87775 8.44339655,26.667125 8.08805172,28.2924375" id="Fill-7" fill="#CE192E"></path>
                    </g>
                </g>
            </g>
        </g>
    </g>
</svg>