<?xml version="1.0" encoding="UTF-8"?>
<svg width="16px" height="20px" viewBox="0 0 16 20" version="1.1" xmlns="http://www.w3.org/2000/svg" xmlns:xlink="http://www.w3.org/1999/xlink">
    <!-- Generator: Sketch 46.2 (44496) - http://www.bohemiancoding.com/sketch -->
    <title>Shape Copy 3</title>
    <desc>Created with Sketch.</desc>
    <defs></defs>
    <g id="Symbols" stroke="none" stroke-width="1" fill="none" fill-rule="evenodd">
        <g id="entrainement" transform="translate(-177.000000, -276.000000)" stroke="#CE192E" fill-rule="nonzero">
            <g id="Group-3" transform="translate(46.000000, 277.000000)">
                <g id="biceps" transform="translate(43.000000, 0.000000)">
                    <path d="M103,12.2760728 L103,17.1811353 C103,17.3417526 102.897504,17.4847965 102.744475,17.5378947 C102.690033,17.5567908 101.379989,18 98.673232,18 C95.954748,18 93.9155989,17.5320368 93.3933929,17.2158098 C93.2191017,17.1102748 92.9505141,17.097142 92.5054425,17.0753169 C92.1408422,17.05746 91.6870941,17.0351626 91.0868957,16.9516416 C90.5246447,16.8734115 90.1718672,16.7070309 89.9769815,16.4279348 C89.7237445,16.0653177 89.8185176,15.6470514 89.9101444,15.2426738 C89.9457082,15.0857413 89.9825115,14.9234234 90.0006271,14.7616723 C90.0383838,14.4251319 89.895938,14.0488151 89.698764,13.5278482 C89.4718423,12.9280844 89.1893343,12.181592 89.0452676,11.1303992 C88.8966243,10.0456657 89.1386106,7.32169121 89.4146351,5.13417841 C89.5659481,3.93493426 89.7378556,2.8088182 89.898417,1.96321549 C90.1917943,0.419211086 90.3473978,0.31641603 90.4847903,0.225714511 C90.6622279,0.1084639 90.9985106,0 92.2469614,0 C93.1555064,0 94.0924643,0.0594283915 94.1319373,0.0619793717 C94.2381519,0.0687819857 94.3367389,0.119329187 94.4037666,0.201338477 C94.4432395,0.249712621 95.371521,1.40152744 95.371521,2.73502874 C95.371521,3.94211479 93.7266246,4.62965121 93.0003797,4.87435635 C93.0923879,5.61508543 93.3912953,7.56205023 94.111152,8.89111094 C94.7614067,10.0914889 94.8639982,11.4453035 94.8528428,12.2693646 C95.6305741,11.8304071 97.0054527,11.1933234 98.4345829,11.1933234 C100.1569,11.1933234 101.853092,11.6719628 102.491714,11.8522321 C102.564844,11.8728289 102.640262,11.8940871 102.670582,11.9015511 C102.856696,11.9267774 103,12.0848437 103,12.2760728 Z" id="Shape-Copy-3"></path>
                </g>
            </g>
        </g>
    </g>
</svg>