<?xml version="1.0" encoding="UTF-8"?>
<svg width="14px" height="18px" viewBox="0 0 14 18" version="1.1" xmlns="http://www.w3.org/2000/svg" xmlns:xlink="http://www.w3.org/1999/xlink">
    <!-- Generator: Sketch 46.2 (44496) - http://www.bohemiancoding.com/sketch -->
    <title>Shape</title>
    <desc>Created with Sketch.</desc>
    <defs></defs>
    <g id="Symbols" stroke="none" stroke-width="1" fill="none" fill-rule="evenodd">
        <g id="entrainement" transform="translate(-154.000000, -277.000000)" fill-rule="nonzero" fill="#CE192E">
            <g id="Group-3" transform="translate(46.000000, 277.000000)">
                <g id="biceps" transform="translate(43.000000, 0.000000)">
                    <path d="M79,12.2760728 L79,17.1811353 C79,17.3417526 78.8975038,17.4847965 78.7444747,17.5378947 C78.6900326,17.5567908 77.3799887,18 74.673232,18 C71.954748,18 69.9155989,17.5320368 69.3933929,17.2158098 C69.2191017,17.1102748 68.9505141,17.097142 68.5054425,17.0753169 C68.1408422,17.05746 67.6870941,17.0351626 67.0868957,16.9516416 C66.5246447,16.8734115 66.1718672,16.7070309 65.9769815,16.4279348 C65.7237445,16.0653177 65.8185176,15.6470514 65.9101444,15.2426738 C65.9457082,15.0857413 65.9825115,14.9234234 66.0006271,14.7616723 C66.0383838,14.4251319 65.895938,14.0488151 65.698764,13.5278482 C65.4718423,12.9280844 65.1893343,12.181592 65.0452676,11.1303992 C64.8966243,10.0456657 65.1386106,7.32169121 65.4146351,5.13417841 C65.5659481,3.93493426 65.7378556,2.8088182 65.898417,1.96321549 C66.1917943,0.419211086 66.3473978,0.31641603 66.4847903,0.225714511 C66.6622279,0.1084639 66.9985106,0 68.2469614,0 C69.1555064,0 70.0924643,0.0594283915 70.1319373,0.0619793717 C70.2381519,0.0687819857 70.3367389,0.119329187 70.4037666,0.201338477 C70.4432395,0.249712621 71.371521,1.40152744 71.371521,2.73502874 C71.371521,3.94211479 69.7266246,4.62965121 69.0003797,4.87435635 C69.0923879,5.61508543 69.3912953,7.56205023 70.111152,8.89111094 C70.7614067,10.0914889 70.8639982,11.4453035 70.8528428,12.2693646 C71.6305741,11.8304071 73.0054527,11.1933234 74.4345829,11.1933234 C76.1568997,11.1933234 77.8530919,11.6719628 78.4917144,11.8522321 C78.5648442,11.8728289 78.6402623,11.8940871 78.6705821,11.9015511 C78.8566961,11.9267774 79,12.0848437 79,12.2760728 Z" id="Shape"></path>
                </g>
            </g>
        </g>
    </g>
</svg>