<?xml version="1.0" encoding="UTF-8"?>
<svg width="106px" height="75px" viewBox="0 0 106 75" version="1.1" xmlns="http://www.w3.org/2000/svg" xmlns:xlink="http://www.w3.org/1999/xlink">
    <!-- Generator: Sketch 46.2 (44496) - http://www.bohemiancoding.com/sketch -->
    <title>XMLID_823_</title>
    <desc>Created with Sketch.</desc>
    <defs></defs>
    <g id="Page-1" stroke="none" stroke-width="1" fill="none" fill-rule="evenodd">
        <g id="Desktop-HD---article" transform="translate(-667.000000, -732.000000)" fill-rule="nonzero" fill="#FFFFFF">
            <g id="Group-3" transform="translate(360.000000, 510.000000)">
                <g id="youtube" transform="translate(307.000000, 222.000000)">
                    <path d="M101.868394,6.43821677 C98.0421355,1.86532274 90.9777484,0 77.4863419,0 L28.5126323,0 C14.7124581,0 7.52839355,1.98564396 3.71649677,6.85418443 C0,11.6010286 0,18.5951294 0,28.2751437 L0,46.7252001 C0,65.4784659 4.4096,75 28.5126323,75 L77.4866839,75 C89.1863484,75 95.6694452,73.3540057 99.8636258,69.3184318 C104.164832,65.1800693 106,58.4231732 106,46.7252001 L106,28.2751437 C106,18.0667473 105.712432,11.0313935 101.868394,6.43821677 Z M68.0523419,40.0473722 L45.8135419,51.7326256 C45.3163677,51.9938946 44.7726903,52.1234977 44.2296968,52.1234977 C43.6148968,52.1234977 43.0014645,51.9571106 42.458129,51.6263992 C41.4350581,51.0031352 40.8103419,49.8882731 40.8103419,48.6857485 L40.8103419,25.3901845 C40.8103419,24.1897225 41.4333484,23.0758918 42.4543677,22.452284 C43.475729,21.8286763 44.7460194,21.7860482 45.8056774,22.3395259 L68.0444774,33.9494926 C69.1759419,34.5400979 69.8864839,35.714433 69.8881935,36.9956822 C69.8895613,38.2779627 69.1820968,39.4540167 68.0523419,40.0473722 Z" id="XMLID_823_"></path>
                </g>
            </g>
        </g>
    </g>
</svg>