<?xml version="1.0" encoding="UTF-8"?>
<svg width="26px" height="25px" viewBox="0 0 26 25" version="1.1" xmlns="http://www.w3.org/2000/svg" xmlns:xlink="http://www.w3.org/1999/xlink">
    <!-- Generator: Sketch 46.2 (44496) - http://www.bohemiancoding.com/sketch -->
    <title>Shape</title>
    <desc>Created with Sketch.</desc>
    <defs></defs>
    <g id="Page-1" stroke="none" stroke-width="1" fill="none" fill-rule="evenodd">
        <g id="Desktop-HD---entrainement-detail" transform="translate(-601.000000, -1053.000000)" fill-rule="nonzero" fill="#CE192E">
            <g id="Group-6" transform="translate(360.000000, 1036.000000)">
                <g id="star-copy-2" transform="translate(241.000000, 17.000000)">
                    <path d="M25.9770845,9.51469887 C25.9221684,9.3446929 25.7765011,9.22071064 25.6010487,9.194881 L17.1821283,7.96022437 L13.4171164,0.262053404 C13.3389307,0.101440027 13.1769747,0 13.0001262,0 C12.8232777,0 12.6608563,0.101440027 12.583136,0.262053404 L8.81765865,7.960694 L0.398738243,9.19535063 C0.223285894,9.22118027 0.0780839498,9.3446929 0.0227024391,9.5151685 C-0.0317482899,9.68470484 0.0133946222,9.87161748 0.140446323,9.99606937 L6.23287789,15.9885451 L4.79435478,24.450334 C4.76456977,24.6264452 4.83623996,24.8044349 4.97911495,24.9096319 C5.12292072,25.0157682 5.31326558,25.0293875 5.46917151,24.9453238 L13.0001262,20.9506531 L20.5301501,24.9453238 C20.5980971,24.9814853 20.6730251,24.9993312 20.7470222,24.9993312 C20.8433581,24.9993312 20.9392286,24.9692749 21.020672,24.9096319 C21.1640124,24.8044349 21.2356826,24.6264452 21.2054322,24.450334 L19.7673745,15.9890147 L25.859806,9.99606937 C25.9863923,9.87067822 26.0320007,9.68423521 25.9770845,9.51469887 Z" id="Shape"></path>
                </g>
            </g>
        </g>
    </g>
</svg>