<?xml version="1.0" encoding="UTF-8"?>
<svg width="28px" height="27px" viewBox="0 0 28 27" version="1.1" xmlns="http://www.w3.org/2000/svg" xmlns:xlink="http://www.w3.org/1999/xlink">
    <!-- Generator: Sketch 46.2 (44496) - http://www.bohemiancoding.com/sketch -->
    <title>Shape Copy 2</title>
    <desc>Created with Sketch.</desc>
    <defs></defs>
    <g id="Page-1" stroke="none" stroke-width="1" fill="none" fill-rule="evenodd">
        <g id="Desktop-HD---entrainement-detail" transform="translate(-636.000000, -1052.000000)" stroke="#CE192E" fill-rule="nonzero">
            <g id="Group-6" transform="translate(360.000000, 1036.000000)">
                <g id="star-copy-2" transform="translate(241.000000, 17.000000)">
                    <path d="M61.9770845,9.51469887 C61.9221684,9.3446929 61.7765011,9.22071064 61.6010487,9.194881 L53.1821283,7.96022437 L49.4171164,0.262053404 C49.3389307,0.101440027 49.1769747,0 49.0001262,0 C48.8232777,0 48.6608563,0.101440027 48.583136,0.262053404 L44.8176586,7.960694 L36.3987382,9.19535063 C36.2232859,9.22118027 36.0780839,9.3446929 36.0227024,9.5151685 C35.9682517,9.68470484 36.0133946,9.87161748 36.1404463,9.99606937 L42.2328779,15.9885451 L40.7943548,24.450334 C40.7645698,24.6264452 40.83624,24.8044349 40.9791149,24.9096319 C41.1229207,25.0157682 41.3132656,25.0293875 41.4691715,24.9453238 L49.0001262,20.9506531 L56.5301501,24.9453238 C56.5980971,24.9814853 56.6730251,24.9993312 56.7470222,24.9993312 C56.8433581,24.9993312 56.9392286,24.9692749 57.020672,24.9096319 C57.1640124,24.8044349 57.2356826,24.6264452 57.2054322,24.450334 L55.7673745,15.9890147 L61.859806,9.99606937 C61.9863923,9.87067822 62.0320007,9.68423521 61.9770845,9.51469887 Z" id="Shape-Copy-2"></path>
                </g>
            </g>
        </g>
    </g>
</svg>