<?xml version="1.0" encoding="UTF-8"?>
<svg width="111px" height="102px" viewBox="0 0 111 102" version="1.1" xmlns="http://www.w3.org/2000/svg" xmlns:xlink="http://www.w3.org/1999/xlink">
    <!-- Generator: Sketch 46.2 (44496) - http://www.bohemiancoding.com/sketch -->
    <title>logo-solo</title>
    <desc>Created with Sketch.</desc>
    <defs>
        <polygon id="path-1" points="110.592 51.00015 110.592 102 0 102 0 51.00015 0 0.0003 110.592 0.0003"></polygon>
    </defs>
    <g id="Symbols" stroke="none" stroke-width="1" fill="none" fill-rule="evenodd">
        <g id="logo-solo">
            <g>
                <path d="M26.874,42.3839 L26.874,63.0639 C26.874,65.4749 26.951,67.0199 27.104,67.6989 C27.257,68.3779 27.609,68.8769 28.156,69.1959 C28.704,69.5129 29.734,69.6719 31.247,69.6719 L31.247,34.6569 C29.252,34.6569 28.024,35.0579 27.564,35.8579 C27.104,36.6569 26.874,38.8329 26.874,42.3839" id="Fill-1" fill="#CE192E"></path>
                <g id="Group-5">
                    <mask id="mask-2" fill="white">
                        <use xlink:href="#path-1"></use>
                    </mask>
                    <g id="Clip-4"></g>
                    <path d="M102,78.7443 L101.864,78.7443 L80.13,78.7443 L80.126,78.7793 L62.845,78.7793 C61.263,70.6013 59.867,61.2973 58.656,50.8663 C58.104,55.3383 56.816,64.6423 54.795,78.7793 L45.088,78.7793 L45.088,78.8043 L34.731,78.8043 C28.046,78.8043 23.526,78.4963 21.17,77.8833 C18.814,77.2683 17.022,76.2603 15.794,74.8563 C14.567,73.4533 13.8,71.8903 13.493,70.1693 C13.186,68.4473 13.033,65.0653 13.033,60.0213 L13.033,41.3723 C13.033,36.5913 13.258,33.3953 13.707,31.7833 C14.156,30.1723 14.939,28.9113 16.057,28.0013 C17.175,27.0913 18.556,26.4553 20.2,26.0933 C21.844,25.7313 24.321,25.5503 27.63,25.5503 L31.417,25.5503 L44.864,25.5503 L45.088,25.5503 L45.088,28.4003 L46.326,44.1223 L47.74,62.0773 C48.251,52.7853 49.527,40.6103 51.567,25.5503 L65.941,25.5503 C66.132,27.1063 66.635,32.9593 67.45,43.1063 L68.979,63.3593 C69.767,50.4733 71.054,37.8723 72.842,25.5503 L86.289,25.5503 L81.308,68.5723 L81.308,68.5703 C81.308,71.7503 74.535,72.1853 74.535,72.1853 L80.89,72.1853 L90.935,72.1853 C93.327,71.9873 101.386,71.0703 102,67.6633 L102,50.0003 C102,22.5003 79.5,0.0003 52,0.0003 L12,0.0003 C5.4,0.0003 0,5.3993 0,12.0003 L0,52.0003 C0,79.5003 22.5,102.0003 50,102.0003 L90,102.0003 C96.6,102.0003 102,96.5993 102,90.0003 L102,82.8273 C103.07,79.2663 110.592,78.7443 110.592,78.7443 L102,78.7443 Z" id="Fill-3" fill="#CE192E" mask="url(#mask-2)"></path>
                </g>
            </g>
        </g>
    </g>
</svg>