<?xml version="1.0" encoding="UTF-8"?>
<svg width="253px" height="103px" viewBox="0 0 253 103" version="1.1" xmlns="http://www.w3.org/2000/svg" xmlns:xlink="http://www.w3.org/1999/xlink">
    <!-- Generator: Sketch 46.2 (44496) - http://www.bohemiancoding.com/sketch -->
    <title>logo-white</title>
    <desc>Created with Sketch.</desc>
    <defs></defs>
    <g id="Page-1" stroke="none" stroke-width="1" fill="none" fill-rule="evenodd">
        <g id="Desktop-HD---homepage" transform="translate(-1307.000000, -915.000000)">
            <g id="logo-white" transform="translate(1307.000000, 915.000000)">
                <g id="Shape">
                    <path d="M120.5,65.4 L124.5,37.4 L127.81,37.4 C132.996667,37.4 137.036667,38.6466667 139.93,41.14 C142.823333,43.6333333 144.266667,47.0766667 144.26,51.47 C144.436508,55.2357672 143.059106,58.9088382 140.45,61.63 C137.91,64.17 134.303333,65.44 129.63,65.44 L120.5,65.4 Z M127.79,40.73 L124.79,62.07 L128.16,62.07 C130.583007,62.2069828 133.006582,61.8110186 135.26,60.91 C136.827436,60.1048604 138.106284,58.8330009 138.92,57.27 C139.868743,55.4158343 140.333142,53.3518398 140.27,51.27 C140.420958,48.2931098 139.174771,45.4161569 136.9,43.49 C134.711634,41.6454446 131.931789,40.6513748 129.07,40.69 L127.79,40.73 Z" fill="#CE192E" fill-rule="nonzero"></path>
                    <path d="M164.17,46.94 L161.58,65.4 L158.09,65.4 L158.43,63.27 L158.35,63.17 C157.125825,64.7030653 155.308455,65.6444633 153.35,65.76 C151.660488,65.7600146 150.068722,64.9678334 149.05,63.62 C147.855469,62.166115 147.223684,60.3311012 147.27,58.45 C147.159124,55.2319053 148.352732,52.105447 150.58,49.78 C152.78,47.5066667 155.853333,46.37 159.8,46.37 C161.276476,46.3492346 162.748249,46.5412049 164.17,46.94 L164.17,46.94 Z M158.85,60.06 L160.36,49.4 C159.98,49.4 159.62,49.4 159.28,49.4 C156.89545,49.2380718 154.572248,50.1999069 153,52 C151.613072,53.6331076 150.854257,55.7074366 150.86,57.85 C150.793031,59.1393212 151.143727,60.4158553 151.86,61.49 C152.43945,62.3783641 153.429366,62.9128431 154.49,62.91 C155.529305,62.823111 156.507214,62.3818163 157.26,61.66 C158.3,60.8 158.82,60.28 158.85,60.06 L158.85,60.06 Z" fill="#FFFFFF" fill-rule="nonzero"></path>
                    <path d="M172.15,46.93 L169.56,65.4 L166.08,65.4 L168.67,46.93 L172.15,46.93 Z M169.05,41.15 C169.041157,40.3356451 169.526987,39.5972574 170.278353,39.2830898 C171.029719,38.9689222 171.896545,39.1417259 172.47,39.72 C172.851716,40.0959148 173.066656,40.6092587 173.066656,41.145 C173.066656,41.6807413 172.851716,42.1940852 172.47,42.57 C172.100541,42.9513303 171.590935,43.1645697 171.06,43.16 C169.955431,43.16 169.06,42.2645695 169.06,41.16 L169.05,41.15 Z" fill="#FFFFFF" fill-rule="nonzero"></path>
                    <polygon fill="#FFFFFF" fill-rule="nonzero" points="181.25 37.36 177.25 65.36 173.77 65.36 177.72 37.36"></polygon>
                    <polygon fill="#FFFFFF" fill-rule="nonzero" points="197.05 46.93 183.8 74.85 180.09 74.85 185.09 64.23 181.49 46.93 185 46.93 187.56 59.64 193.38 46.93"></polygon>
                    <polygon fill="#CE192E" fill-rule="nonzero" points="159.44 73.4 145.84 101.68 144.45 101.68 139 81.79 129.46 101.68 128 101.68 121.36 73.4 124.89 73.4 129.54 93.25 139 73.4 140.42 73.4 145.91 93.59 155.55 73.4"></polygon>
                    <path d="M164.21,82.41 C166.126169,82.3361115 167.969906,83.1473557 169.21,84.61 C170.524896,86.2677363 171.192977,88.3466056 171.09,90.46 C171.209941,93.4363091 170.318148,96.3654795 168.56,98.77 C167.138606,100.800435 164.818502,102.012708 162.34,102.02 C160.392977,102.117 158.510435,101.308615 157.24,99.83 C155.915108,98.0902829 155.258643,95.932819 155.39,93.75 C155.28757,90.8438405 156.187943,87.9908944 157.94,85.67 C159.379627,83.6330884 161.715714,82.4184725 164.21,82.41 Z M164.21,85.16 C162.776667,85.16 161.543333,86.0466667 160.51,87.82 C159.451254,89.7431413 158.929675,91.9158097 159,94.11 C158.947797,95.3579444 159.275576,96.5923463 159.94,97.65 C160.414162,98.4604246 161.271525,98.9703098 162.21,99 C163.656667,99 164.903333,98.17 165.95,96.51 C167.044419,94.6103511 167.5816,92.4408357 167.5,90.25 C167.564968,88.9523317 167.252351,87.6636557 166.6,86.54 C166.111615,85.6815384 165.197642,85.1538052 164.21,85.16 L164.21,85.16 Z" fill="#FFFFFF" fill-rule="nonzero"></path>
                    <path d="M179.92,83 L179.38,86.51 L179.46,86.59 C180.195018,85.447158 181.072016,84.4021532 182.07,83.48 C182.72105,82.9657356 183.530504,82.6935609 184.36,82.71 C184.884074,82.7055004 185.403923,82.804034 185.89,83 L185.89,87 C185.239845,86.6089612 184.498539,86.3951893 183.74,86.38 C183.093271,86.3675364 182.457063,86.5448402 181.91,86.89 C180.605367,88.0397453 179.541539,89.436657 178.78,91 L177.33,101.4 L173.85,101.4 L176.43,83 L179.92,83 Z" fill="#FFFFFF" fill-rule="nonzero"></path>
                    <polygon fill="#FFFFFF" fill-rule="nonzero" points="193.57 73.4 191 91.1 198.87 83 203.31 83 194.85 91.73 203.85 101.46 199.41 101.46 190.9 92.08 189.57 101.46 186.13 101.46 190.04 73.46"></polygon>
                    <path d="M213.1,82.41 C215.015596,82.3391161 216.858077,83.1498079 218.1,84.61 C219.422873,86.2644877 220.098254,88.3439495 220,90.46 C220.122828,93.4351346 219.234594,96.3641921 217.48,98.77 C216.055428,100.802012 213.731621,102.014271 211.25,102.02 C209.306143,102.115388 207.427322,101.307015 206.16,99.83 C204.835108,98.0902829 204.178643,95.932819 204.31,93.75 C204.20757,90.8438405 205.107943,87.9908944 206.86,85.67 C208.293482,83.6416728 210.616323,82.4281377 213.1,82.41 L213.1,82.41 Z M213.1,85.16 C211.67,85.16 210.43,86.05 209.4,87.82 C208.323852,89.7382431 207.784931,91.9112007 207.84,94.11 C207.782663,95.3585003 208.110843,96.5944106 208.78,97.65 C209.261594,98.4723404 210.137151,98.9840297 211.09,99 C212.55,99 213.8,98.17 214.84,96.51 C215.934419,94.6103511 216.4716,92.4408357 216.39,90.25 C216.454968,88.9523317 216.142351,87.6636557 215.49,86.54 C215.001615,85.6815384 214.087642,85.1538052 213.1,85.16 L213.1,85.16 Z" fill="#FFFFFF" fill-rule="nonzero"></path>
                    <path d="M239.22,83 L236.6,101.46 L233.15,101.46 L233.47,98.33 C231.34,100.6 229.32,101.74 227.39,101.74 C226.196162,101.762543 225.048404,101.279467 224.23,100.41 C223.309561,99.3620686 222.84208,97.991991 222.93,96.6 C222.933797,96.1250487 222.967195,95.6507959 223.03,95.18 L224.76,83 L228.25,83 L226.52,95.18 C226.470228,95.5513228 226.44351,95.9253727 226.44,96.3 C226.44,98.15 227.13,99.07 228.49,99.07 C229.85,99.07 231.78,97.71 234.05,95 L235.74,83 L239.22,83 Z" fill="#FFFFFF" fill-rule="nonzero"></path>
                    <path d="M252.22,83 L251.84,85.73 L248.16,85.73 L246.37,95.8 C246.282772,96.2212496 246.235893,96.6498544 246.23,97.08 C246.23,98.29 246.88,98.89 248.23,98.89 C249.428522,98.8154799 250.588313,98.436913 251.6,97.79 L251.4,101.2 C250.192898,101.732545 248.889329,102.011638 247.57,102.02 C246.275242,102.094703 244.99904,101.684749 243.99,100.87 C243.123899,100.117427 242.639705,99.0169867 242.67,97.87 C242.667485,97.5345362 242.697627,97.1996239 242.76,96.87 L244.7,85.7 L241.4,85.7 L241.82,82.97 L245.2,82.97 L245.87,79.19 L249.32,79.19 L248.65,83 L252.22,83 Z" fill="#FFFFFF" fill-rule="nonzero"></path>
                    <path d="M26.87,42.38 L26.87,63.06 C26.8191467,64.6103582 26.8960734,66.162271 27.1,67.7 C27.2214564,68.3290529 27.607599,68.8754812 28.16,69.2 C29.1406777,69.5902693 30.1976351,69.7510363 31.25,69.67 L31.25,34.67 C29.25,34.67 28.02,35.07 27.56,35.87 C27.1,36.67 26.87,38.84 26.87,42.38 Z" fill="#CE192E" fill-rule="nonzero"></path>
                    <path d="M102,78.74 L80.13,78.74 L80.13,78.74 L62.84,78.74 C61.26,70.56 59.8666667,61.2566667 58.66,50.83 C58.1,55.3033333 56.8133333,64.6066667 54.8,78.74 L45.09,78.74 L45.09,78.74 L34.73,78.74 C28.0633333,78.74 23.5433333,78.4333333 21.17,77.82 C19.1148685,77.3862232 17.2392436,76.3403357 15.79,74.82 C14.609325,73.4961055 13.8138728,71.8740747 13.49,70.13 C13.0884921,66.7690711 12.9247518,63.3839902 13,60 L13,41.37 C13,36.59 13.23,33.37 13.68,31.78 C14.0525381,30.2995488 14.8859947,28.9758237 16.06,28 C17.2702508,27.0460602 18.6887955,26.3916109 20.2,26.09 C22.6526689,25.6643598 25.1415611,25.4834713 27.63,25.55 L45.09,25.55 L45.09,28.4 L46.33,44.12 L47.74,62.12 C48.2466667,52.8266667 49.5233333,40.65 51.57,25.59 L65.94,25.59 C66.1266667,27.15 66.63,33.0033333 67.45,43.15 L69,63.36 C69.7733333,50.4533333 71.0533333,37.85 72.84,25.55 L86.29,25.55 L81.29,68.55 L81.29,68.55 C81.29,71.73 74.51,72.17 74.51,72.17 L90.94,72.17 C93.33,71.97 101.39,71.05 102,67.64 L102,50 C101.91763,22.4199533 79.5800467,0.0823700278 52,0 L12,0 C5.372583,-4.05812251e-16 8.11624501e-16,5.372583 0,12 L0,52 C0.0823700278,79.5800467 22.4199533,101.91763 50,102 L90,102 C96.627417,102 102,96.627417 102,90 L102,82.83 C103.07,79.27 110.59,78.74 110.59,78.74 L102,78.74 Z" fill="#CE192E" fill-rule="nonzero"></path>
                </g>
            </g>
        </g>
    </g>
</svg>