<?xml version="1.0" encoding="UTF-8"?>
<svg width="87px" height="207px" viewBox="0 0 87 207" version="1.1" xmlns="http://www.w3.org/2000/svg" xmlns:xlink="http://www.w3.org/1999/xlink">
    <!-- Generator: Sketch 46.2 (44496) - http://www.bohemiancoding.com/sketch -->
    <title>Page 1</title>
    <desc>Created with Sketch.</desc>
    <defs>
        <polygon id="path-1" points="16.9090373 61 0.285286348 61 0.285286348 0.5708 16.9090373 0.5708"></polygon>
        <polygon id="path-3" points="0 122.165223 0 0.676 86.7898298 0.676 86.7898298 122.165223"></polygon>
    </defs>
    <g id="Symbols" stroke="none" stroke-width="1" fill="none" fill-rule="evenodd">
        <g id="quadriceps" transform="translate(0.000000, -1.000000)">
            <g id="Page-1">
                <g id="Group-3" transform="translate(25.000000, 146.324000)">
                    <mask id="mask-2" fill="white">
                        <use xlink:href="#path-1"></use>
                    </mask>
                    <g id="Clip-2"></g>
                    <path d="M2.2133,7.5848 C2.5333,8.4318 2.3653,9.2118 1.6773,11.1298 C-0.7097,17.8398 -0.4057,22.5648 5.5983,40.3698 C5.5983,40.3698 7.4463,44.3138 6.5123,51.4018 C6.5123,51.4018 2.6763,59.2948 5.1333,59.4528 C5.1333,59.4528 5.3253,59.9758 6.1563,59.5618 C6.1563,59.5618 7.4833,60.9318 8.9173,60.1888 C8.9173,60.1888 10.2453,61.2488 11.3803,60.3048 C11.3803,60.3048 12.2903,61.3518 13.6173,60.5058 C13.6173,60.5058 15.3593,61.6808 16.3943,60.4078 C16.3943,60.4078 18.2333,60.8148 14.9593,52.5218 C14.9593,52.5218 13.7053,43.7288 13.0143,41.9998 C11.6963,38.7248 12.6273,29.7488 12.9083,27.8248 C13.3613,24.6078 13.1183,19.1298 12.2903,14.8908 C11.6843,11.8528 13.3253,6.1168 13.9313,2.5908 C14.0063,2.1428 14.0863,1.6498 14.1693,1.1248 L1.7143,0.5708 C1.8043,3.5078 1.8123,6.4818 2.2133,7.5848" id="Fill-1" fill="#1A1A1A" mask="url(#mask-2)"></path>
                </g>
                <path d="M23.7011,127.2545 L22.4281,117.1265 C22.7911,120.1655 23.2231,123.7305 23.7011,127.2545" id="Fill-4" fill="#000000"></path>
                <path d="M47.8769,148.9176 C48.4749,152.4386 50.1109,158.1726 49.5229,161.2176 C48.6819,165.4616 48.4389,170.9536 48.9009,174.1516 C49.1929,176.0936 50.1119,185.0506 48.7979,188.3266 C48.1089,190.0446 46.8489,198.8486 46.8489,198.8486 C43.5639,207.1426 45.4169,206.7346 45.4169,206.7346 C46.4349,207.9826 48.1769,206.8326 48.1769,206.8326 C49.5039,207.6786 50.4229,206.6316 50.4229,206.6316 C51.5619,207.5746 52.8899,206.5156 52.8899,206.5156 C54.3199,207.2586 55.6479,205.8886 55.6479,205.8886 C56.4699,206.3026 56.6699,205.7796 56.6699,205.7796 C59.1369,205.6216 55.2949,197.7306 55.2949,197.7306 C54.3739,190.6416 56.2069,186.6966 56.2069,186.6966 C62.2109,168.8916 62.5169,164.1666 60.1159,157.4566 C59.4399,155.5206 59.2699,154.7526 59.5799,153.9116 C59.9869,152.8136 59.9959,149.8356 60.0859,146.8966 L47.6379,147.4486 C47.7219,147.9766 47.8019,148.4686 47.8769,148.9176" id="Fill-6" fill="#1A1A1A"></path>
                <g id="Group-10" transform="translate(0.000000, 0.324000)">
                    <mask id="mask-4" fill="white">
                        <use xlink:href="#path-3"></use>
                    </mask>
                    <g id="Clip-9"></g>
                    <path d="M81.8847,102.9056 C80.6657,101.3776 79.0957,99.3316 78.6397,98.1166 C77.8967,96.0586 77.3357,89.4426 77.3357,89.4426 C77.1107,81.6356 75.1807,78.2446 75.1807,78.2446 C71.8807,72.9626 71.2597,63.1096 71.2597,63.1096 L71.1137,46.4746 C69.9557,35.1276 61.5957,35.0456 61.5957,35.0456 C53.1447,33.7876 51.9687,31.0576 51.9687,31.0576 C50.1787,28.4816 51.2007,23.5436 51.2007,23.5436 C52.6867,22.3356 53.2597,19.1286 53.2597,19.1286 C55.7257,17.2376 55.6047,14.4706 54.4657,14.5006 C53.5517,14.5246 53.7587,13.7676 53.7587,13.7676 C55.3007,1.3116 44.2417,0.6756 44.2417,0.6756 L42.5547,0.6756 C42.5547,0.6756 31.4907,1.3116 33.0307,13.7646 C33.0307,13.7646 33.2387,14.5226 32.3167,14.4976 C31.1807,14.4676 31.0737,17.2346 33.5307,19.1256 C33.5307,19.1256 34.1037,22.3316 35.5897,23.5406 C35.5897,23.5406 36.6127,28.4786 34.8217,31.0546 C34.8217,31.0546 33.6507,33.7846 25.1957,35.0426 C25.1957,35.0426 16.8207,35.1246 15.6817,46.4716 L15.5237,63.1066 C15.5237,63.1066 14.9147,72.9596 11.6017,78.2416 C11.6017,78.2416 9.6807,81.6336 9.4587,89.4396 C9.4587,89.4396 8.8957,96.0556 8.1557,98.1136 C7.7047,99.3226 6.1347,101.3686 4.9057,102.9026 C2.4987,105.8956 -1.5493,112.1426 0.6157,112.8556 C0.6157,112.8556 2.3057,113.0196 4.5257,108.5986 C4.5257,108.5986 4.4797,110.2916 2.6977,115.2236 C2.3487,116.1376 0.8597,120.8136 3.2717,119.1326 C3.2717,119.1326 4.3887,118.3656 5.8407,113.5556 C5.8407,113.5556 5.0617,121.6556 5.9277,122.0616 C7.0617,122.6166 7.6797,121.0146 8.1907,113.9266 C8.1907,113.9266 8.7147,111.6376 8.9577,120.3746 C8.9687,120.8256 9.6307,123.0726 10.5527,121.1546 C11.3327,119.5466 10.9827,115.2906 10.9827,113.8596 C10.9827,113.8596 11.9817,119.3816 12.9157,119.3816 C12.9157,119.3816 14.0147,120.6726 13.5637,113.8106 C13.4897,112.6896 13.8837,110.3886 13.9327,109.7186 L14.0387,107.0876 C14.0387,107.0876 13.7647,104.0736 13.7647,102.8186 C13.7647,102.5076 14.8427,98.4036 17.6857,94.0716 C17.6857,94.0716 23.5987,83.5836 23.2177,76.7296 C23.2177,76.7296 23.1347,70.1896 25.5167,66.4846 C25.5167,66.4846 27.2067,85.0106 26.0617,90.2116 C26.0617,90.2116 20.7417,102.9896 21.9157,112.5196 C22.0627,113.7326 22.2357,115.1926 22.4267,116.7896 L42.3117,118.6316 L43.3197,118.9856 C44.0417,118.9876 44.4967,118.6346 44.4967,118.6346 C44.4967,118.6396 44.4967,118.6476 44.4957,118.6526 L44.5087,118.6316 L64.3687,116.7916 C64.5607,115.1936 64.7347,113.7336 64.8837,112.5226 C66.0527,102.9926 60.7417,90.2146 60.7417,90.2146 C59.5787,85.0146 61.2837,66.4876 61.2837,66.4876 C63.6647,70.1926 63.5737,76.7326 63.5737,76.7326 C63.1967,83.5916 69.1147,94.0746 69.1147,94.0746 C71.9587,98.4066 73.0357,102.5166 73.0357,102.8216 C73.0357,104.0696 72.7637,107.0906 72.7637,107.0906 L72.8717,109.7216 C72.9217,110.3916 73.2987,112.6986 73.2377,113.8136 C72.7927,120.6756 73.8837,119.3846 73.8837,119.3846 C74.8037,119.3846 75.8147,113.8636 75.8147,113.8636 C75.8147,115.2866 75.4667,119.5496 76.2347,121.1576 C77.1537,123.0756 77.8287,120.8286 77.8417,120.3776 C78.0837,111.6406 78.6097,113.9296 78.6097,113.9296 C79.1197,121.0176 79.7477,122.6186 80.8737,122.0646 C81.7277,121.6576 80.9477,113.5586 80.9477,113.5586 C82.4077,118.3696 83.5167,119.1356 83.5167,119.1356 C85.9277,120.8286 84.4367,116.1526 84.1017,115.2266 C82.3177,110.3066 82.2627,108.6016 82.2627,108.6016 C84.4907,113.0226 86.1717,112.8586 86.1717,112.8586 C88.3457,112.1646 84.2717,105.9056 81.8847,102.9056" id="Fill-8" fill="#1A1A1A" mask="url(#mask-4)"></path>
                </g>
                <path d="M22.4262,117.1139 L22.4282,117.1269 C22.4272,117.1229 22.4272,117.1179 22.4262,117.1139 Z" id="Fill-11" fill="#CE192E"></path>
                <path d="M22.4282,117.1266 L23.7012,127.2546 C24.4412,132.7156 25.2872,138.0496 26.1412,141.0606 C26.5262,142.4046 26.6452,144.6386 26.7142,146.8956 L39.1692,147.4486 C40.4612,139.2586 42.5982,122.3246 42.3112,118.9556 L22.4272,117.1136 C22.4272,117.1176 22.4282,117.1226 22.4282,117.1266" id="Fill-13" fill="#CE192E"></path>
                <path d="M44.496,118.9762 C44.219,122.3752 46.342,139.2652 47.638,147.4492 L60.086,146.8962 C60.155,144.6412 60.271,142.4092 60.652,141.0642 C62.055,136.1082 63.439,124.8552 64.369,117.1162 L44.509,118.9552 L44.496,118.9762 Z" id="Fill-15" fill="#CE192E"></path>
            </g>
        </g>
    </g>
</svg>