<?xml version="1.0" encoding="UTF-8"?>
<svg width="13px" height="14px" viewBox="0 0 13 14" version="1.1" xmlns="http://www.w3.org/2000/svg" xmlns:xlink="http://www.w3.org/1999/xlink">
    <!-- Generator: Sketch 46.2 (44496) - http://www.bohemiancoding.com/sketch -->
    <title>point</title>
    <desc>Created with Sketch.</desc>
    <defs></defs>
    <g id="Page-1" stroke="none" stroke-width="1" fill="none" fill-rule="evenodd">
        <g id="Desktop-HD---homepage" transform="translate(-526.000000, -1250.000000)" stroke="#979797" fill="#CE192E">
            <g id="Group" transform="translate(360.000000, 1215.000000)">
                <g id="point" transform="translate(166.000000, 35.000000)">
                    <path d="M0.0226730406,8.33370322 L0.0226730406,1.0373102 C-0.0957929486,0.345770067 0.249977119,4.54944507e-14 1.05998324,4.47642235e-14 C2.27499243,4.47642235e-14 5.36185236,-3.89941286e-20 6.99200811,4.47642235e-14 C8.62216385,8.95284861e-14 12.9914069,2.03545557 12.9914069,5.99939879 C12.9914069,9.96334201 12.9914069,9.9156934 12.9914069,11.5276629 C12.9914069,12.6023092 12.3228719,13.1396324 10.9858018,13.1396324 C11.7394373,13.1396324 10.0854295,13.1396324 6.02377827,13.1396324 C1.96212706,13.1396324 -0.0382413469,11.537656 0.0226730406,8.33370322 Z" id="Path-2" stroke="none"></path>
                </g>
            </g>
        </g>
    </g>
</svg>